<?xml version="1.0" standalone="no"?>
<!DOCTYPE svg PUBLIC "-//W3C//DTD SVG 20010904//EN"
 "http://www.w3.org/TR/2001/REC-SVG-20010904/DTD/svg10.dtd">
<svg version="1.0" xmlns="http://www.w3.org/2000/svg"
 width="228.000000pt" height="228.000000pt" viewBox="0 0 228.000000 228.000000"
 preserveAspectRatio="xMidYMid meet">
<metadata>
Created by potrace 1.14, written by Peter Selinger 2001-2017
</metadata>
<g transform="translate(0.000000,228.000000) scale(0.100000,-0.100000)"
fill="#000000" stroke="none">
<path d="M378 2175 c-3 -3 -15 -8 -28 -10 -34 -7 -105 -52 -133 -84 -13 -16
-35 -51 -48 -78 l-24 -48 0 -775 0 -775 29 -58 c18 -39 44 -71 77 -97 94 -74
55 -71 910 -68 725 3 766 4 799 22 68 36 118 86 147 144 l28 57 3 754 c3 844
5 818 -67 909 -27 34 -59 59 -98 78 l-58 29 -766 2 c-421 2 -768 1 -771 -2z"/>
</g>
</svg>
